<svg data-v-6805eed4="" version="1.0" xmlns="http://www.w3.org/2000/svg" xmlns:xlink="http://www.w3.org/1999/xlink"
  width="100%" height="100%" viewBox="0 0 340.000000 250.000000" preserveAspectRatio="xMidYMid meet"
  color-interpolation-filters="sRGB" style="margin: auto;">
  <rect data-v-6805eed4="" x="0" y="0" width="100%" height="100%" fill="#ffffff" fill-opacity="1" class="background">
  </rect>
  <g data-v-6805eed4="" fill="#5da62d" class="basesvg" transform="translate(57.28772735595703,103.15500068664551)">
    <g data-gra="path-name" fill-rule="" class="tp-name">
      <g transform="scale(1)">
        <g>
          <path
            d="M29.74-11.1L29.74-8.57Q29.74-4.15 26.83-2.05L26.83-2.05Q23.98 0 21.12 0L21.12 0 12.07 0Q9.21 0 6.52-2.05L6.52-2.05Q5.23-3.12 4.53-4.77 3.83-6.41 3.83-8.57L3.83-8.57 3.83-23.92Q3.83-28.29 6.52-30.39L6.52-30.39Q7.87-31.36 9.29-31.92 10.72-32.49 12.07-32.49L12.07-32.49 21.12-32.49Q22.41-32.49 23.98-31.98 25.54-31.46 26.88-30.6L26.88-30.6Q28.18-29.69 28.96-28.07 29.74-26.45 29.74-24.24L29.74-24.24 29.74-21.55Q29.74-18.96 26.78-18.96L26.78-18.96Q23.81-18.96 23.81-21.55L23.81-21.55 23.81-23.87Q23.81-25.21 22.98-26.32 22.14-27.42 20.15-27.42L20.15-27.42 13.42-27.42Q11.42-27.42 10.59-26.32 9.75-25.21 9.75-23.87L9.75-23.87 9.75-8.62Q9.75-7.33 10.59-6.2 11.42-5.06 13.42-5.06L13.42-5.06 20.15-5.06Q22.14-5.06 22.98-6.2 23.81-7.33 23.81-8.62L23.81-8.62 23.81-11.1Q23.81-13.63 26.78-13.63L26.78-13.63Q29.74-13.63 29.74-11.1L29.74-11.1ZM45.09-32.43L53.72-32.43Q55.12-32.43 56.6-31.84 58.08-31.25 59.48-30.33L59.48-30.33 59.43-30.33Q60.83-29.31 61.58-27.67 62.34-26.02 62.34-23.87L62.34-23.87 62.34-8.57Q62.34-4.15 59.43-2.05L59.43-2.05Q56.57 0 53.72 0L53.72 0 45.09 0Q43.69 0 42.24-0.48 40.78-0.97 39.38-2.05L39.38-2.05Q36.47-4.09 36.47-8.57L36.47-8.57 36.47-23.87Q36.47-26.02 37.23-27.67 37.98-29.31 39.38-30.33L39.38-30.33 39.33-30.33Q40.68-31.25 42.19-31.84 43.69-32.43 45.09-32.43L45.09-32.43ZM46.06-5.06L52.75-5.06Q54.74-5.06 55.57-6.2 56.41-7.33 56.41-8.62L56.41-8.62 56.41-23.81Q56.41-25.16 55.57-26.26 54.74-27.37 52.75-27.37L52.75-27.37 46.06-27.37Q44.07-27.37 43.24-26.26 42.4-25.16 42.4-23.81L42.4-23.81 42.4-8.62Q42.4-7.33 43.24-6.2 44.07-5.06 46.06-5.06L46.06-5.06ZM75.27-40.73L75.27-2.1Q75.27 0.43 72.3 0.43L72.3 0.43Q69.29 0.43 69.29-2.1L69.29-2.1 69.29-40.73Q69.29-43.26 72.3-43.26L72.3-43.26Q75.27-43.26 75.27-40.73L75.27-40.73ZM88.84-40.73L88.84-2.1Q88.84 0.43 85.88 0.43L85.88 0.43Q82.86 0.43 82.86-2.1L82.86-2.1 82.86-40.73Q82.86-43.26 85.88-43.26L85.88-43.26Q88.84-43.26 88.84-40.73L88.84-40.73ZM102.2-23.87L102.2-8.62Q102.2-7.33 103.04-6.2 103.87-5.06 105.87-5.06L105.87-5.06 112.6-5.06Q114.6-5.06 115.43-6.06 116.27-7.06 116.27-8.35L116.27-8.35 116.27-8.94Q116.27-11.48 119.23-11.48L119.23-11.48Q122.19-11.48 122.19-8.94L122.19-8.94 122.19-8.3Q122.19-6.03 121.47-4.58 120.74-3.12 119.28-2.05L119.28-2.05Q116.43 0 113.57 0L113.57 0 104.52 0Q101.67 0 98.97-2.05L98.97-2.05Q97.68-3.12 96.98-4.77 96.28-6.41 96.28-8.57L96.28-8.57 96.28-23.92Q96.28-28.29 98.97-30.39L98.97-30.39Q100.32-31.36 101.75-31.92 103.17-32.49 104.52-32.49L104.52-32.49 113.57-32.49Q114.87-32.49 116.43-31.98 117.99-31.46 119.34-30.6L119.34-30.6Q120.63-29.69 121.41-28.07 122.19-26.45 122.19-24.24L122.19-24.24 122.19-16.97Q122.19-15.73 121.47-14.76 120.74-13.79 118.8-13.79L118.8-13.79 107.16-13.79Q105.22-13.79 105.11-16.32L105.11-16.32Q105.11-18.86 107.16-18.86L107.16-18.86 116.32-18.86 116.27-23.87Q116.27-25.21 115.43-26.32 114.6-27.42 112.6-27.42L112.6-27.42 105.87-27.42Q103.87-27.42 103.04-26.32 102.2-25.21 102.2-23.87L102.2-23.87ZM154.95-11.1L154.95-8.57Q154.95-4.15 152.04-2.05L152.04-2.05Q149.18 0 146.33 0L146.33 0 137.28 0Q134.42 0 131.73-2.05L131.73-2.05Q130.44-3.12 129.74-4.77 129.03-6.41 129.03-8.57L129.03-8.57 129.03-23.92Q129.03-28.29 131.73-30.39L131.73-30.39Q133.08-31.36 134.5-31.92 135.93-32.49 137.28-32.49L137.28-32.49 146.33-32.49Q147.62-32.49 149.18-31.98 150.75-31.46 152.09-30.6L152.09-30.6Q153.39-29.69 154.17-28.07 154.95-26.45 154.95-24.24L154.95-24.24 154.95-21.55Q154.95-18.96 151.99-18.96L151.99-18.96Q149.02-18.96 149.02-21.55L149.02-21.55 149.02-23.87Q149.02-25.21 148.19-26.32 147.35-27.42 145.36-27.42L145.36-27.42 138.62-27.42Q136.63-27.42 135.8-26.32 134.96-25.21 134.96-23.87L134.96-23.87 134.96-8.62Q134.96-7.33 135.8-6.2 136.63-5.06 138.62-5.06L138.62-5.06 145.36-5.06Q147.35-5.06 148.19-6.2 149.02-7.33 149.02-8.62L149.02-8.62 149.02-11.1Q149.02-13.63 151.99-13.63L151.99-13.63Q154.95-13.63 154.95-11.1L154.95-11.1ZM173.21-27.37L168.74-27.37 168.74-7.76Q168.74-6.36 169.33-5.6 169.93-4.85 171.87-4.85L171.87-4.85 173.27-4.85Q175.37-4.85 175.26-2.37L175.26-2.37Q175.26 0.16 173.27 0.16L173.27 0.16 171.49 0.16Q169.77 0.16 168.26-0.3 166.75-0.75 165.35-1.62L165.35-1.62 165.35-1.56Q162.71-3.29 162.71-7.7L162.71-7.7 162.71-27.37 160.61-27.37Q158.67-27.37 158.56-29.9L158.56-29.9Q158.56-32.43 160.61-32.43L160.61-32.43 162.71-32.43 162.71-38.2Q162.71-40.78 165.78-40.78L165.78-40.78Q168.74-40.78 168.74-38.2L168.74-38.2 168.74-32.43 173.21-32.43Q175.32-32.43 175.21-29.9L175.21-29.9Q175.21-27.37 173.21-27.37L173.21-27.37ZM188.57-32.43L197.19-32.43Q198.59-32.43 200.07-31.84 201.55-31.25 202.95-30.33L202.95-30.33 202.9-30.33Q204.3-29.31 205.06-27.67 205.81-26.02 205.81-23.87L205.81-23.87 205.81-8.57Q205.81-4.15 202.9-2.05L202.9-2.05Q200.04 0 197.19 0L197.19 0 188.57 0Q187.17 0 185.71-0.48 184.26-0.97 182.86-2.05L182.86-2.05Q179.95-4.09 179.95-8.57L179.95-8.57 179.95-23.87Q179.95-26.02 180.7-27.67 181.46-29.31 182.86-30.33L182.86-30.33 182.8-30.33Q184.15-31.25 185.66-31.84 187.17-32.43 188.57-32.43L188.57-32.43ZM189.54-5.06L196.22-5.06Q198.21-5.06 199.05-6.2 199.88-7.33 199.88-8.62L199.88-8.62 199.88-23.81Q199.88-25.16 199.05-26.26 198.21-27.37 196.22-27.37L196.22-27.37 189.54-27.37Q187.55-27.37 186.71-26.26 185.87-25.16 185.87-23.81L185.87-23.81 185.87-8.62Q185.87-7.33 186.71-6.2 187.55-5.06 189.54-5.06L189.54-5.06ZM218.42-24.51L218.42-2.26Q218.42 0.32 215.45 0.32L215.45 0.32Q212.38 0.32 212.38-2.26L212.38-2.26 212.38-24.57Q212.38-28.99 215.02-30.71L215.02-30.71Q217.66-32.43 221.11-32.43L221.11-32.43 227.25-32.43Q229.25-32.43 229.25-29.9L229.25-29.9Q229.35-27.37 227.25-27.37L227.25-27.37 221.54-27.37Q219.6-27.37 219.01-26.62 218.42-25.86 218.42-24.51L218.42-24.51Z"
            transform="translate(-3.8299999237060547, 43.2599983215332)"></path>
        </g>
        <!---->
        <!---->
        <!---->
        <!---->
        <!---->
        <!---->
        <!---->
      </g>
    </g>
    <!---->
  </g>
  <defs v-gra="od"></defs>
</svg>